# Blender v2.93.1 OBJ File: 'DFDFDd.blend'
# www.blender.org
mtllib DFDFDd.mtl
o Maze2.004
v -19.215799 -0.028944 -249.335342
v 19.215799 -0.028944 -249.335342
v -49.354950 -0.028964 -171.890503
v 49.365566 -0.028964 -171.890503
v -11.486400 -0.028964 -171.890503
v 11.486300 -0.028964 -171.890503
v 11.486300 14.827018 -171.890503
v -11.486400 14.827018 -171.890503
v 11.486300 14.827017 -106.589706
v -11.486400 14.827017 -106.589706
v 11.486300 -0.028827 -171.890503
v 11.486300 -0.028827 -106.589706
v -11.486400 -0.017956 -171.890503
v -11.486400 -0.017956 -106.589706
v 49.365566 -0.028964 -171.890503
v 49.365566 14.827018 -171.890503
v 49.365566 -0.028827 -171.890503
v -49.354950 -0.028964 -171.890503
v -49.354950 14.827018 -171.890503
v 19.215799 1.971056 -249.335342
v 49.365566 1.971036 -171.890503
v -19.215799 1.971056 -249.335342
v -49.354950 1.971036 -171.890503
v 19.215799 1.971056 -249.335342
v 49.365566 1.971036 -171.890503
v -19.215799 1.971056 -249.335342
v -49.354950 1.971036 -171.890503
v 15.373171 1.971054 -241.590851
v 39.492985 1.971038 -179.634979
v -15.372108 1.971054 -241.590851
v -39.483429 1.971038 -179.634995
v 19.215799 3.971056 -249.335342
v 49.365566 3.971035 -171.890503
v -19.215799 3.971056 -249.335342
v -49.354950 3.971035 -171.890503
v 15.373171 3.971054 -241.590851
v 39.492985 3.971038 -179.634979
v -15.372108 3.971054 -241.590851
v -39.483429 3.971038 -179.634995
v 11.530542 1.971052 -233.846359
v 29.620405 1.971040 -187.379471
v -11.528419 1.971052 -233.846359
v -29.611910 1.971040 -187.379471
v 11.530542 -0.028948 -233.846359
v 29.620405 -0.028960 -187.379471
v -11.528419 -0.028948 -233.846359
v -29.611910 -0.028960 -187.379471
v 49.365566 -0.028960 -171.890503
v -49.354950 -0.028960 -171.890503
v -29.611910 -0.028960 -187.379456
vt 0.000000 0.000000
vt 0.000000 0.000000
vt 0.000000 0.000000
vt 0.000000 0.000000
vt 0.000000 0.000000
vt 0.000000 0.000000
vt 0.000000 0.000000
vt 0.000000 0.000000
vt 0.000000 0.000000
vt 0.000000 0.000000
vt 0.000000 0.000000
vt 0.000000 0.000000
vt 0.000000 0.000000
vt 0.000000 0.000000
vt 0.000000 0.000000
vt 0.000000 0.000000
vt 0.000000 0.000000
vt 0.000000 0.000000
vt 0.000000 0.000000
vt 0.000000 0.000000
vt 0.000000 0.000000
vt 0.000000 0.000000
vt 0.000000 0.000000
vt 0.000000 0.000000
vt 0.000000 0.000000
vt 0.000000 0.000000
vt 0.000000 0.000000
vt 0.000000 0.000000
vt 0.000000 0.000000
vt 0.000000 0.000000
vt 0.000000 0.000000
vt 0.000000 0.000000
vt 0.000000 0.000000
vt 0.000000 0.000000
vt 0.000000 0.000000
vt 0.000000 0.000000
vt 0.000000 0.000000
vt 0.000000 0.000000
vt 0.000000 0.000000
vt 0.000000 0.000000
vt 0.000000 0.000000
vt 0.000000 0.000000
vt 0.000000 0.000000
vt 0.000000 0.000000
vt 0.000000 0.000000
vt 0.000000 0.000000
vt 0.000000 0.000000
vt 0.000000 0.000000
vt 0.000000 0.000000
vt 0.000000 0.000000
vn 0.0000 -1.0000 -0.0000
vn -1.0000 0.0000 0.0000
vn 1.0000 0.0000 0.0000
vn 0.0000 0.0000 -1.0000
vn 0.0000 0.0000 1.0000
vn -0.9319 0.0000 -0.3627
vn 0.9319 0.0000 -0.3628
vn 0.0000 1.0000 0.0000
vn -0.9319 0.0000 0.3628
vn 0.9319 0.0000 0.3627
vn 0.6172 0.0000 0.7868
vn -0.6172 0.0000 0.7868
usemtl wire_085028177.004
s off
f 7/1/1 9/2/1 10/3/1 8/4/1
f 7/1/2 11/5/2 12/6/2 9/2/2
f 10/3/3 14/7/3 13/8/3 8/4/3
f 7/1/4 16/9/4 17/10/4 11/5/4
f 7/1/5 6/11/5 15/12/5 16/9/5
f 8/4/4 5/13/4 18/14/4 19/15/4
f 1/16/4 22/17/4 20/18/4 2/19/4
f 22/17/5 26/20/5 24/21/5 20/18/5
f 3/22/6 23/23/6 22/17/6 1/16/6
f 2/19/7 20/18/7 21/24/7 4/25/7
f 26/20/4 34/26/4 32/27/4 24/21/4
f 20/18/5 24/21/5 25/28/5 21/24/5
f 23/23/5 27/29/5 26/20/5 22/17/5
f 30/30/8 42/31/8 40/32/8 28/33/8
f 29/34/9 37/35/9 36/36/9 28/33/9
f 28/33/5 36/36/5 38/37/5 30/30/5
f 32/27/8 36/36/8 37/35/8 33/38/8
f 35/39/8 39/40/8 38/37/8 34/26/8
f 34/26/8 38/37/8 36/36/8 32/27/8
f 24/21/7 32/27/7 33/38/7 25/28/7
f 30/30/10 38/37/10 39/40/10 31/41/10
f 31/41/11 39/40/11 35/39/11 27/29/11
f 25/28/12 33/38/12 37/35/12 29/34/12
f 27/29/6 35/39/6 34/26/6 26/20/6
f 42/31/5 46/42/5 44/43/5 40/32/5
f 28/33/8 40/32/8 41/44/8 29/34/8
f 31/41/8 43/45/8 42/31/8 30/30/8
f 45/46/8 44/43/8 46/42/8 47/47/8
f 40/32/9 44/43/9 45/46/9 41/44/9
f 43/45/10 47/47/10 46/42/10 42/31/10
f 47/47/8 49/48/8 48/49/8 45/46/8
f 3/22/11 50/50/11 43/45/11 31/41/11 27/29/11 23/23/11
f 29/34/12 41/44/12 45/46/12 48/49/12
f 48/49/12 25/28/12 29/34/12 41/44/12 45/46/12
f 1/16/1 46/42/1 47/47/1 3/22/1
f 4/25/1 45/46/1 44/43/1 2/19/1
f 2/19/1 44/43/1 46/42/1 1/16/1
l 6 4
l 3 5
