# Blender v2.93.1 OBJ File: '자판기.blend'
# www.blender.org
mtllib dolmachine.mtl
o Cube
v 0.000000 1.800000 -1.000000
v 0.918750 -0.015000 -1.080000
v 0.000000 1.800000 1.000000
v 0.918750 -0.015000 1.080000
v -1.096250 1.800000 -1.000000
v -1.096250 -0.015000 -1.080000
v -1.096250 1.800000 1.000000
v -1.096250 -0.015000 1.080000
v 0.938750 0.315000 -1.100000
v -1.096250 0.315000 1.100000
v 0.938750 0.315000 1.100000
v -1.096250 0.315000 -1.100000
v 0.938750 0.315000 1.150000
v 0.938750 -0.015000 1.150000
v -1.096250 -0.015000 1.150000
v -1.096250 0.315000 1.150000
v 0.938750 -0.015000 -1.150000
v -1.096250 -0.015000 -1.150000
v 0.938750 0.315000 -1.150000
v -1.096250 0.315000 -1.150000
v 0.988750 0.315000 -1.100000
v 0.988750 -0.015000 -1.100000
v 0.988750 0.315000 1.100000
v 0.988750 -0.015000 1.100000
v 0.988750 0.315000 1.150000
v 0.988750 -0.015000 1.150000
v 0.988750 0.315000 -1.150000
v 0.988750 -0.015000 -1.150000
v -0.996250 1.585000 -0.980000
v -0.996250 1.585000 0.980000
v 0.000000 1.585000 -0.980000
v 0.000000 1.585000 0.980000
vt 0.625000 0.500000
vt 0.875000 0.500000
vt 0.875000 0.750000
vt 0.625000 0.750000
vt 0.412500 0.750000
vt 0.625000 1.000000
vt 0.412500 1.000000
vt 0.412500 0.000000
vt 0.625000 0.000000
vt 0.625000 0.250000
vt 0.412500 0.250000
vt 0.125000 0.500000
vt 0.375000 0.500000
vt 0.375000 0.500000
vt 0.125000 0.500000
vt 0.412500 0.500000
vt 0.125000 0.500000
vt 0.375000 0.500000
vt 0.412500 0.750000
vt 0.375000 0.750000
vt 0.375000 0.750000
vt 0.412500 0.750000
vt 0.375000 0.000000
vt 0.375000 0.250000
vt 0.125000 0.750000
vt 0.375000 0.750000
vt 0.125000 0.750000
vt 0.412500 1.000000
vt 0.375000 1.000000
vt 0.375000 0.500000
vt 0.375000 0.750000
vt 0.375000 0.000000
vt 0.412500 0.000000
vt 0.375000 0.250000
vt 0.412500 0.250000
vt 0.412500 0.500000
vt 0.375000 0.500000
vt 0.412500 0.500000
vt 0.412500 0.750000
vt 0.412500 0.500000
vt 0.375000 0.750000
vt 0.125000 0.750000
vt 0.375000 0.250000
vt 0.375000 0.000000
vn 0.0000 1.0000 0.0000
vn 0.0000 0.0672 0.9977
vn -1.0000 -0.0000 0.0000
vn 0.0000 -0.0624 0.9981
vn 0.8453 0.5343 0.0000
vn 0.0000 0.0672 -0.9977
vn 0.0000 -1.0000 0.0000
vn 0.0000 -0.0000 1.0000
vn 0.0000 0.0000 -1.0000
vn 1.0000 -0.0000 0.0000
vn 0.0000 -0.0624 -0.9981
vn 0.9981 -0.0624 0.0000
vn -0.8672 -0.4980 0.0000
usemtl Material
s off
f 1/1/1 5/2/1 7/3/1 3/4/1
f 11/5/2 3/4/2 7/6/2 10/7/2
f 10/8/3 7/9/3 5/10/3 12/11/3
f 6/12/4 2/13/4 31/14/4 29/15/4
f 9/16/5 1/1/5 3/4/5 11/5/5
f 12/11/6 5/10/6 1/1/6 9/16/6
f 2/13/7 6/12/7 18/17/7 17/18/7
f 13/19/8 14/20/8 26/21/8 25/22/8
f 8/23/3 10/8/3 12/11/3 6/24/3
f 8/25/7 4/26/7 14/20/7 15/27/7
f 14/20/8 13/19/8 16/28/8 15/29/8
f 11/5/1 10/7/1 16/28/1 13/19/1
f 4/26/7 2/13/7 22/30/7 24/31/7
f 10/8/3 8/23/3 15/32/3 16/33/3
f 18/34/9 20/35/9 19/36/9 17/18/9
f 2/13/7 17/18/7 28/37/7 22/30/7
f 6/24/3 12/11/3 20/35/3 18/34/3
f 12/11/1 9/16/1 19/36/1 20/35/1
f 22/30/10 21/38/10 23/39/10 24/31/10
f 24/31/10 23/39/10 25/22/10 26/21/10
f 21/38/10 22/30/10 28/37/10 27/40/10
f 17/18/9 19/36/9 27/40/9 28/37/9
f 11/5/1 13/19/1 25/22/1 23/39/1
f 19/36/1 9/16/1 21/38/1 27/40/1
f 9/16/1 11/5/1 23/39/1 21/38/1
f 14/20/7 4/26/7 24/31/7 26/21/7
f 29/15/7 31/14/7 32/41/7 30/42/7
f 4/26/11 8/25/11 30/42/11 32/41/11
f 8/23/12 6/24/12 29/43/12 30/44/12
f 2/13/13 4/26/13 32/41/13 31/14/13
